<svg width="154" height="135" viewBox="0 0 154 135" fill="none" xmlns="http://www.w3.org/2000/svg">
<path d="M34 30H120V114H34V30Z" fill="#2774AE"/>
<path fill-rule="evenodd" clip-rule="evenodd" d="M130 53.7212L90.7245 16.6687C83.0188 9.39923 70.9813 9.39923 63.2757 16.6687L24.0001 53.7212V110.721C24.0001 118.453 30.2681 124.721 38.0001 124.721H116C123.732 124.721 130 118.453 130 110.721V53.7212ZM120 110.721V58.0349L83.8623 23.9427C80.0094 20.3079 73.9907 20.3079 70.1379 23.9427L34.0001 58.0349V110.721C34.0001 112.93 35.7909 114.721 38.0001 114.721H116C118.209 114.721 120 112.93 120 110.721Z" fill="white"/>
<path fill-rule="evenodd" clip-rule="evenodd" d="M80.3787 25.3142C78.4671 23.5619 75.5331 23.5619 73.6214 25.3142L21.7301 72.8813C18.8803 75.4936 14.4523 75.3011 11.84 72.4512C9.22765 69.6014 9.42017 65.1734 12.27 62.5611L64.1613 14.9941C71.4254 8.33532 82.5747 8.3353 89.8388 14.9941L141.73 62.5611C144.58 65.1734 144.772 69.6014 142.16 72.4512C139.548 75.3011 135.12 75.4936 132.27 72.8813L80.3787 25.3142Z" fill="white"/>
<path d="M57.0001 50.7212H78.5853C82.8582 50.7212 86.0383 50.9054 88.1256 51.2737C90.2374 51.6175 92.116 52.3542 93.7613 53.4838C95.4312 54.6134 96.8186 56.1236 97.9237 58.0145C99.0287 59.8808 99.5812 61.9804 99.5812 64.3133C99.5812 66.8426 98.8937 69.1632 97.5185 71.2751C96.1679 73.3869 94.3261 74.9708 91.9932 76.0268C95.2838 76.9845 97.8132 78.6175 99.5812 80.9258C101.349 83.2341 102.233 85.9476 102.233 89.0663C102.233 91.522 101.656 93.9163 100.502 96.2491C99.3725 98.5575 97.8132 100.411 95.8241 101.811C93.8596 103.186 91.4284 104.034 88.5308 104.353C86.7136 104.549 82.3302 104.672 75.3807 104.721H57.0001V50.7212ZM67.9032 59.7089V72.1959H75.0492C79.2975 72.1959 81.9373 72.1345 82.9687 72.0118C84.835 71.7908 86.2961 71.1523 87.3521 70.0963C88.4325 69.0159 88.9728 67.6038 88.9728 65.8603C88.9728 64.1905 88.5062 62.8399 87.5731 61.8085C86.6645 60.7526 85.3016 60.1141 83.4844 59.8931C82.4039 59.7703 79.2975 59.7089 74.1651 59.7089H67.9032ZM67.9032 81.1837V95.6229H77.996C81.925 95.6229 84.4175 95.5124 85.4735 95.2914C87.0942 94.9968 88.408 94.2846 89.4148 93.155C90.4462 92.0008 90.9619 90.4661 90.9619 88.5506C90.9619 86.9299 90.569 85.5547 89.7831 84.4251C88.9973 83.2955 87.8555 82.4729 86.3575 81.9572C84.8841 81.4415 81.6672 81.1837 76.7068 81.1837H67.9032Z" fill="white"/>
<path fill-rule="evenodd" clip-rule="evenodd" d="M89.8388 14.9941C82.5747 8.3353 71.4254 8.33532 64.1613 14.9941L12.27 62.5611C9.42016 65.1734 9.22764 69.6014 11.84 72.4512C12.4702 73.1388 13.2061 73.6716 14.0001 74.0478C16.497 75.2307 19.5678 74.8634 21.7301 72.8813L24.0001 70.8005V110.721C24.0001 118.453 30.2681 124.721 38.0001 124.721H116C123.732 124.721 130 118.453 130 110.721V70.8005L132.27 72.8813C134.432 74.8634 137.503 75.2307 140 74.0478C140.794 73.6716 141.53 73.1388 142.16 72.4512C144.772 69.6014 144.58 65.1734 141.73 62.5611L89.8388 14.9941ZM140 84.4553C143.542 83.823 146.913 82.0656 149.532 79.2085C155.876 72.2875 155.408 61.5338 148.487 55.1896L96.5961 7.62253C85.5088 -2.54086 68.4914 -2.54083 57.4041 7.62253L5.51275 55.1896C-1.40827 61.5338 -1.87582 72.2875 4.46845 79.2085C7.08749 82.0656 10.458 83.823 14.0001 84.4553V110.721C14.0001 123.976 24.7452 134.721 38.0001 134.721H116C129.255 134.721 140 123.976 140 110.721V84.4553ZM34.0001 61.6338V110.721C34.0001 112.93 35.7909 114.721 38.0001 114.721H116C118.209 114.721 120 112.93 120 110.721V61.6338L80.3787 25.3142C78.4671 23.5619 75.5331 23.5619 73.6214 25.3142L34.0001 61.6338ZM47.0001 63.2828L44.0001 66.0328V104.721H47.0001V63.2828ZM67.9032 95.6229H77.996C81.925 95.6229 84.4175 95.5124 85.4735 95.2914C86.1974 95.1598 86.86 94.9449 87.4615 94.6467C87.4678 94.6436 87.4741 94.6404 87.4804 94.6373C87.6674 94.5439 87.8483 94.4424 88.0234 94.3328C88.5387 94.0102 89.0025 93.6176 89.4148 93.155C90.4462 92.0008 90.9619 90.4661 90.9619 88.5506C90.9619 87.697 90.8529 86.9115 90.6349 86.1941C90.439 85.5494 90.1551 84.9598 89.7831 84.4251C89.729 84.3473 89.6732 84.2709 89.6156 84.196C88.8383 83.1836 87.7522 82.4373 86.3575 81.9572C86.1239 81.8754 85.8465 81.8001 85.5252 81.7313C85.1195 81.6445 84.6439 81.5679 84.0984 81.5017C84.0964 81.5015 84.0944 81.5012 84.0924 81.501C82.5716 81.3168 80.5085 81.2128 77.9032 81.189C77.5163 81.1854 77.1175 81.1837 76.7068 81.1837H67.9032V95.6229ZM91.5104 103.794C90.579 104.05 89.5858 104.237 88.5308 104.353C88.2237 104.386 87.8433 104.417 87.3896 104.446C87.3089 104.451 87.226 104.456 87.1407 104.461C85.2413 104.573 82.1931 104.652 77.996 104.698C77.1688 104.707 76.2971 104.715 75.3807 104.721H57.0001V50.7212H78.5853C80.873 50.7212 82.8475 50.774 84.5086 50.8796C84.5325 50.8811 84.5563 50.8826 84.5801 50.8841C85.99 50.9755 87.1719 51.1054 88.1256 51.2737C89.3792 51.4778 90.5506 51.8203 91.6399 52.3013C92.3855 52.6306 93.0927 53.0247 93.7613 53.4838C95.4312 54.6134 96.8186 56.1236 97.9237 58.0145C99.0287 59.8808 99.5812 61.9804 99.5812 64.3133C99.5812 65.61 99.4005 66.8518 99.0391 68.0387C98.9342 68.3833 98.814 68.7233 98.6787 69.0586C98.3707 69.8213 97.984 70.5602 97.5185 71.2751C96.6121 72.6923 95.4845 73.8718 94.1357 74.8135C93.7292 75.0974 93.3026 75.3596 92.8559 75.6002C92.5762 75.7509 92.2887 75.8931 91.9932 76.0268C92.6903 76.2297 93.3533 76.4629 93.9821 76.7264C94.189 76.8131 94.3922 76.903 94.5917 76.9963C95.7417 77.534 96.7689 78.1807 97.6731 78.9365C98.074 79.2716 98.4508 79.6282 98.8035 80.0063C99.0773 80.2999 99.3366 80.6064 99.5812 80.9258C99.962 81.4229 100.302 81.9387 100.6 82.4734C101.689 84.4215 102.233 86.6192 102.233 89.0663C102.233 91.522 101.656 93.9163 100.502 96.2491C99.3725 98.5575 97.8132 100.411 95.8241 101.811C94.5748 102.686 93.137 103.347 91.5104 103.794ZM109.48 100.653C108.774 102.095 107.948 103.455 107 104.721H110V99.5388C109.835 99.9132 109.662 100.285 109.48 100.653ZM110 78.8907V66.0328L109.545 65.6161C109.374 68.7182 108.589 71.6893 107.209 74.448C107.314 74.5788 107.417 74.7111 107.52 74.845C108.505 76.1312 109.33 77.4841 110 78.8907ZM77.0001 35.7828L71.6128 40.7212H78.5853C79.9221 40.7212 81.2131 40.7377 82.4465 40.7754L77.0001 35.7828ZM85.027 71.5414C85.9465 71.2086 86.7215 70.7269 87.3521 70.0964C87.8606 69.5878 88.2495 69.0058 88.5187 68.3504C88.7986 67.6689 88.9491 66.908 88.9702 66.0677C88.9719 65.9991 88.9728 65.93 88.9728 65.8603C88.9728 64.1905 88.5062 62.8399 87.5731 61.8085C87.3972 61.6041 87.2043 61.4154 86.9945 61.2423C86.8556 61.1277 86.7092 61.02 86.5554 60.9192C86.5163 60.8936 86.4768 60.8684 86.4368 60.8437C85.6421 60.3527 84.658 60.0358 83.4844 59.8931C82.7606 59.8108 81.1275 59.7561 78.5853 59.729C78.3648 59.7266 78.1374 59.7245 77.9032 59.7225C76.8071 59.7134 75.561 59.7089 74.1651 59.7089H67.9032V72.1959H75.0492C75.4503 72.1959 75.8371 72.1954 76.2095 72.1943C76.3782 72.1938 76.544 72.1932 76.7068 72.1925C77.125 72.1906 77.5238 72.188 77.9032 72.1847C80.5036 72.1619 82.1921 72.1042 82.9687 72.0118C83.7206 71.9227 84.4066 71.7659 85.027 71.5414Z" fill="#2774AE"/>
</svg>
