<svg width="180" height="180" viewBox="0 0 180 180" fill="none" xmlns="http://www.w3.org/2000/svg">
<circle cx="90" cy="90" r="90" fill="#40916C"/>
<path fill-rule="evenodd" clip-rule="evenodd" d="M87.4757 68.5769C83.3944 50.5432 100.345 34.9554 115.759 32.9265C123.161 31.9522 127.755 30.3707 132.916 28.5938C135.343 27.7581 137.896 26.8793 140.925 26C141.724 41.7336 136.189 57.1757 122.319 64.4976C118.294 66.6225 112.634 67.3182 107.538 67.9446C101.603 68.6742 96.4322 69.3098 95.5002 72C95.3371 72.4709 95.2218 72.8415 95.1386 73.1637C94.3729 76.1299 96.1129 79.2064 98.505 81.1201L138.748 113.315C141.336 115.385 141.755 119.161 139.685 121.748C137.615 124.336 133.84 124.755 131.252 122.685L130 121.684V143.556C130 149.324 126.418 154 122 154H58C53.5817 154 50 149.324 50 143.556V121.684L48.7484 122.685C46.1608 124.755 42.3851 124.336 40.315 121.748C38.245 119.161 38.6645 115.385 41.2521 113.315L80.2586 82.1096C82.3935 80.4016 83.8339 77.7761 83.2488 75.1054C82.3635 71.0643 79.9975 70.051 76.5218 70.051C60.2262 70.0931 46.0738 64.0512 41.2735 49.8106C39.2404 46.4871 48.9882 46.4356 56.0602 46.3982H56.0602H56.0602H56.0602C58.7308 46.3841 61.0198 46.372 62.1487 46.1864C68.2272 46.4073 74.2813 48.2278 78.467 52.0815C81.0096 53.0739 86.5301 64.4531 87.4757 68.5769Z" fill="white"/>
</svg>
