<svg width="102" height="128" viewBox="0 0 102 128" fill="none" xmlns="http://www.w3.org/2000/svg">
<path fill-rule="evenodd" clip-rule="evenodd" d="M48.4757 42.5769C44.3944 24.5432 61.3453 8.95542 76.759 6.92653C84.1614 5.95215 88.7549 4.37067 93.9159 2.59379C96.3431 1.75814 98.8958 0.879265 101.925 0C102.724 15.7336 97.189 31.1757 83.3192 38.4976C79.2941 40.6225 73.6342 41.3182 68.5382 41.9446C62.6028 42.6742 57.4322 43.3098 56.5002 46C56.3371 46.4709 56.2218 46.8415 56.1386 47.1637C55.3729 50.1299 57.1129 53.2064 59.505 55.1201L99.7484 87.3148C102.336 89.3848 102.755 93.1606 100.685 95.7482C98.6154 98.3357 94.8396 98.7553 92.2521 96.6852L91 95.6836V117.556C91 123.324 87.4183 128 83 128H19C14.5817 128 11 123.324 11 117.556V95.6839L9.74839 96.6852C7.16082 98.7553 3.38507 98.3357 1.31501 95.7482C-0.755049 93.1606 -0.335521 89.3848 2.25205 87.3148L41.2586 56.1096C43.3935 54.4016 44.8339 51.7761 44.2488 49.1054C43.3635 45.0643 40.9975 44.051 37.5218 44.051C21.2262 44.0931 7.07378 38.0512 2.27349 23.8106C0.240363 20.4871 9.98815 20.4356 17.0602 20.3982H17.0602H17.0602H17.0602C19.7308 20.3841 22.0198 20.372 23.1487 20.1864C29.2272 20.4073 35.2813 22.2278 39.467 26.0815C42.0096 27.0739 47.5301 38.4531 48.4757 42.5769Z" fill="white"/>
</svg>
